HIERARCHY
ROOT Hips
{
	OFFSET -0.001795 -0.223333 0.028219
	CHANNELS 6 Xposition Yposition Zposition Zrotation Yrotation Xrotation
	JOINT LeftUpLeg
	{
		OFFSET 0.069520 -0.091406 -0.006815
		CHANNELS 3 Zrotation Yrotation Xrotation
		JOINT LeftLeg
		{
			OFFSET 0.034277 -0.375199 -0.004496
			CHANNELS 3 Zrotation Yrotation Xrotation
			JOINT LeftFoot
			{
				OFFSET -0.013596 -0.397961 -0.043693
				CHANNELS 3 Zrotation Yrotation Xrotation
				JOINT LeftToe
				{
					OFFSET 0.026358 -0.055791 0.119288
					CHANNELS 3 Zrotation Yrotation Xrotation
					End Site
					{
						OFFSET 0.000000 0.000000 0.000000
					}
				}
			}
		}
	}
	JOINT RightUpLeg
	{
		OFFSET -0.067670 -0.090522 -0.004320
		CHANNELS 3 Zrotation Yrotation Xrotation
		JOINT RightLeg
		{
			OFFSET -0.038290 -0.382569 -0.008850
			CHANNELS 3 Zrotation Yrotation Xrotation
			JOINT RightFoot
			{
				OFFSET 0.015774 -0.398415 -0.042312
				CHANNELS 3 Zrotation Yrotation Xrotation
				JOINT RightToe
				{
					OFFSET -0.025372 -0.048144 0.123348
					CHANNELS 3 Zrotation Yrotation Xrotation
					End Site
					{
						OFFSET 0.000000 0.000000 0.000000
					}
				}
			}
		}
	}
	JOINT Spine
	{
		OFFSET -0.002533 0.108963 -0.026696
		CHANNELS 3 Zrotation Yrotation Xrotation
		JOINT Spine1
		{
			OFFSET 0.005487 0.135180 0.001092
			CHANNELS 3 Zrotation Yrotation Xrotation
			JOINT Spine2
			{
				OFFSET 0.001457 0.052922 0.025425
				CHANNELS 3 Zrotation Yrotation Xrotation
				JOINT Neck
				{
					OFFSET -0.002778 0.213870 -0.042857
					CHANNELS 3 Zrotation Yrotation Xrotation
					JOINT Head
					{
						OFFSET 0.005152 0.064970 0.051349
						CHANNELS 3 Zrotation Yrotation Xrotation
						End Site
						{
							OFFSET 0.000000 0.000000 0.000000
						}
					}
				}
				JOINT LeftShoulder
				{
					OFFSET 0.078845 0.121749 -0.034090
					CHANNELS 3 Zrotation Yrotation Xrotation
					JOINT LeftArm
					{
						OFFSET 0.090977 0.030469 -0.008868
						CHANNELS 3 Zrotation Yrotation Xrotation
						JOINT LeftForeArm
						{
							OFFSET 0.259612 -0.012772 -0.027456
							CHANNELS 3 Zrotation Yrotation Xrotation
							JOINT LeftHand
							{
								OFFSET 0.249234 0.008986 -0.001171
								CHANNELS 3 Zrotation Yrotation Xrotation
								End Site
								{
									OFFSET 0.000000 0.000000 0.000000
								}
							}
						}
					}
				}
				JOINT RightShoulder
				{
					OFFSET -0.081759 0.118833 -0.038615
					CHANNELS 3 Zrotation Yrotation Xrotation
					JOINT RightArm
					{
						OFFSET -0.096012 0.032551 -0.009143
						CHANNELS 3 Zrotation Yrotation Xrotation
						JOINT RightForeArm
						{
							OFFSET -0.253742 -0.013329 -0.021401
							CHANNELS 3 Zrotation Yrotation Xrotation
							JOINT RightHand
							{
								OFFSET -0.255298 0.007772 -0.005559
								CHANNELS 3 Zrotation Yrotation Xrotation
								End Site
								{
									OFFSET 0.000000 0.000000 0.000000
								}
							}
						}
					}
				}
			}
		}
	}
}
MOTION
Frames: 18
Frame Time: 0.050000
0.000000 0.968309 0.000000 -0.492392 1.369836 -7.531478 2.497173 0.385182 5.783500 -0.859916 -0.040992 4.740764 1.408937 5.516574 6.698364 0.000000 0.000000 0.000000 1.020813 -0.055077 0.434386 0.075390 0.217650 5.978642 -2.721209 -10.990975 17.421578 0.000000 0.000000 0.000000 6.302743 -1.113423 12.300123 -9.352010 3.099780 -23.837065 -1.369349 2.711965 20.403895 9.981009 -5.965534 -13.990001 0.000000 0.000000 0.000000 -28.387934 -13.570398 5.249400 -45.947163 -2.747075 -5.769500 0.119797 -40.143825 1.652556 0.000000 0.000000 0.000000 36.381983 -1.322048 -1.967122 52.986561 5.649042 -5.292094 -7.226289 46.375779 0.268716 0.000000 0.000000 0.000000
-0.001541 0.967134 0.014983 -0.520536 0.893153 -7.189819 2.347518 0.460433 6.704182 -1.197607 0.035203 3.878751 2.758396 7.942016 6.830194 0.000000 0.000000 0.000000 0.823752 -0.119291 1.037605 0.998010 0.075619 6.166432 -5.159043 -15.170298 18.140083 0.000000 0.000000 0.000000 6.777570 -1.056681 11.302446 -10.383488 3.336575 -23.985474 -0.611856 2.399360 20.806807 7.996935 -4.158101 -16.357557 0.000000 0.000000 0.000000 -30.124132 -12.254544 4.688185 -44.789327 -1.050590 -6.308919 -0.717039 -36.676113 1.803929 0.000000 0.000000 0.000000 36.704855 -3.066073 -3.692691 54.027880 3.395988 -6.262064 -8.875640 43.325455 -0.445723 0.000000 0.000000 0.000000
-0.002683 0.965587 0.028785 -0.191295 0.940248 -7.455608 2.083676 0.553102 7.781039 -0.850208 -0.009489 3.690481 2.509111 7.560275 7.038572 0.000000 0.000000 0.000000 0.694152 -0.301664 2.755538 0.704906 0.095634 5.291569 -6.704928 -17.655765 18.246359 0.000000 0.000000 0.000000 7.021074 -0.946176 10.113356 -10.286039 3.290726 -24.321731 -1.613135 3.043404 22.048552 8.082200 -4.203076 -16.226894 0.000000 0.000000 0.000000 -30.316156 -11.003420 3.616054 -45.636809 0.004338 -6.846738 -0.649052 -33.877918 1.626359 0.000000 0.000000 0.000000 38.152899 -3.245156 -3.599929 53.221508 2.108604 -6.976513 -8.479460 37.822660 -0.234352 0.000000 0.000000 0.000000
-0.003325 0.964021 0.040453 0.267605 0.224542 -8.361043 1.668103 0.731526 9.554978 -0.577362 -0.034390 3.329436 2.473902 7.634645 7.689227 0.000000 0.000000 0.000000 0.254919 -0.457338 4.431411 0.679054 0.104451 5.282496 -6.612571 -17.567321 17.217712 0.000000 0.000000 0.000000 7.158541 -0.919905 10.020010 -10.924589 3.452604 -24.310704 -1.669217 3.652988 22.503326 7.830233 -3.596443 -18.629312 0.000000 0.000000 0.000000 -31.938249 -10.462298 3.145786 -45.898610 0.700348 -7.124354 2.380960 -32.029436 0.688077 0.000000 0.000000 0.000000 39.500670 -3.294704 -3.704752 54.349450 1.743480 -7.342956 -9.446481 32.713615 -0.453186 0.000000 0.000000 0.000000
-0.003525 0.961963 0.049589 0.301069 -0.172785 -8.986132 1.782794 0.776177 10.120909 -0.380948 -0.075786 3.804147 2.334050 7.652738 8.748310 0.000000 0.000000 0.000000 0.308827 -0.540712 5.249656 0.492986 0.159383 5.931442 -6.644935 -17.636236 16.562542 0.000000 0.000000 0.000000 6.789386 -0.847568 9.730583 -10.272938 3.417442 -22.568260 -2.286110 4.010686 21.107922 8.324704 -3.848569 -18.659193 0.000000 0.000000 0.000000 -32.752823 -9.787897 2.474613 -46.292613 1.569323 -7.308017 4.775066 -29.848973 -0.014644 0.000000 0.000000 0.000000 40.272201 -3.260925 -3.793598 54.505965 0.611817 -7.711334 -10.107408 28.422571 -0.593149 0.000000 0.000000 0.000000
-0.003380 0.959975 0.055962 0.624629 -0.630198 -9.675329 1.401361 0.860714 10.599946 -0.312002 -0.099907 4.300550 2.712845 8.553672 9.893806 0.000000 0.000000 0.000000 0.202797 -0.568302 5.625931 -0.014751 0.301697 7.295190 -6.589477 -17.545472 15.605026 0.000000 0.000000 0.000000 6.479946 -0.819857 9.847223 -10.699258 3.489683 -23.204095 -1.788363 3.690918 22.446396 8.535161 -3.830043 -20.527642 0.000000 0.000000 0.000000 -33.655671 -9.607840 2.684264 -46.356202 1.126498 -7.366698 6.842134 -28.288096 -0.457636 0.000000 0.000000 0.000000 40.550931 -2.755190 -3.691440 54.706191 1.112276 -7.575647 -11.878747 24.774178 -0.844789 0.000000 0.000000 0.000000
-0.002719 0.958310 0.059930 0.896481 -1.173726 -9.729649 1.362047 0.863187 10.413734 -0.306894 -0.105109 4.527384 2.290829 8.126348 11.256379 0.000000 0.000000 0.000000 -0.061672 -0.523423 5.371886 -0.191104 0.379549 8.235055 -6.458008 -17.329684 14.800379 0.000000 0.000000 0.000000 6.038945 -0.817132 10.185726 -10.838991 3.492813 -23.404261 -1.635427 3.271862 22.641914 8.245328 -3.671354 -21.092846 0.000000 0.000000 0.000000 -34.065543 -9.070897 2.671568 -46.808074 0.454646 -7.321248 8.637923 -27.243320 -0.804750 0.000000 0.000000 0.000000 40.056666 -2.213985 -3.608829 55.524856 0.980293 -7.615717 -12.382782 24.244393 -0.947574 0.000000 0.000000 0.000000
-0.001848 0.957451 0.061976 0.968883 -2.120965 -9.382997 1.150626 0.837379 9.667547 -0.041121 -0.157607 5.015427 2.426825 8.524598 12.470292 0.000000 0.000000 0.000000 -0.099256 -0.437694 4.583837 -0.373084 0.477057 9.358892 -5.993743 -16.513043 13.503002 0.000000 0.000000 0.000000 5.784218 -0.813345 10.348987 -10.608228 3.357301 -23.889032 -1.164674 3.346939 22.786174 8.622542 -4.044261 -20.886138 0.000000 0.000000 0.000000 -34.709472 -8.821576 2.748003 -46.734991 0.499332 -7.397474 9.296075 -27.246275 -0.925358 0.000000 0.000000 0.000000 39.388138 -1.778572 -3.472932 55.638268 0.913633 -7.579091 -12.228369 23.926940 -0.939797 0.000000 0.000000 0.000000
-0.000639 0.957149 0.063225 1.069630 -2.848876 -9.201904 1.007778 0.805013 9.028382 -0.028824 -0.159763 5.156037 2.654984 9.248027 14.643308 0.000000 0.000000 0.000000 -0.310022 -0.393810 4.286842 -0.570702 0.576505 10.349932 -5.074861 -14.702545 11.475332 0.000000 0.000000 0.000000 5.667023 -0.860178 11.019154 -10.392425 3.172164 -25.343210 -1.150744 3.828447 23.566490 9.058416 -4.194887 -21.935211 0.000000 0.000000 0.000000 -34.934908 -8.646354 2.683542 -46.812799 -0.050993 -7.301772 9.607314 -27.542446 -0.984473 0.000000 0.000000 0.000000 39.516578 -1.715827 -3.392402 55.383500 1.246465 -7.503972 -11.865543 25.083798 -0.907728 0.000000 0.000000 0.000000
0.000623 0.956249 0.064375 1.132551 -3.635149 -8.758871 0.675925 0.814073 8.739144 0.084846 -0.151326 4.405645 3.423882 10.594345 16.199933 0.000000 0.000000 0.000000 -0.522840 -0.341547 3.890947 -0.725887 0.658246 11.050069 -4.236286 -12.804926 9.243454 0.000000 0.000000 0.000000 5.753197 -0.887664 11.272708 -10.476947 3.118735 -26.061220 -0.987855 3.951939 23.546604 9.332083 -4.349362 -22.379335 0.000000 0.000000 0.000000 -35.021515 -8.193451 2.549115 -46.820122 -0.142927 -7.322033 9.656895 -28.171406 -0.994718 0.000000 0.000000 0.000000 38.895135 -1.428790 -3.317077 55.088146 1.272018 -7.378911 -10.709052 26.932687 -0.789856 0.000000 0.000000 0.000000
0.001718 0.954636 0.065647 1.106596 -4.244821 -8.370614 0.681358 0.783626 8.333023 -0.025211 -0.110849 3.706705 4.076585 11.773965 18.258804 0.000000 0.000000 0.000000 -0.632158 -0.286622 3.374072 -0.928789 0.747441 11.677347 -3.642721 -11.374122 7.866142 0.000000 0.000000 0.000000 6.121051 -0.940318 11.530071 -10.701551 3.080970 -27.028494 -0.895572 4.238714 24.122679 9.656288 -4.522728 -22.869033 0.000000 0.000000 0.000000 -35.262736 -8.208717 2.643453 -46.602319 -0.731904 -7.148403 9.641213 -28.993641 -1.002712 0.000000 0.000000 0.000000 39.131845 -1.134641 -3.135329 53.747591 2.273812 -6.851800 -9.782686 27.935796 -0.636941 0.000000 0.000000 0.000000
0.002556 0.950687 0.067121 1.222434 -5.323772 -8.516657 0.745783 0.736489 7.716263 -0.506338 -0.053862 4.665430 5.075055 13.207885 19.604396 0.000000 0.000000 0.000000 -0.657165 -0.228675 2.794999 -0.778131 0.835649 13.199223 -4.089869 -11.845508 5.999345 0.000000 0.000000 0.000000 6.830998 -1.067373 12.495923 -11.176878 3.067403 -28.634356 -0.428308 4.686648 25.325656 9.092255 -4.238763 -22.912607 0.000000 0.000000 0.000000 -35.062487 -7.998845 2.710930 -46.894048 -1.926827 -6.940225 9.186820 -29.407905 -0.852971 0.000000 0.000000 0.000000 38.183726 -0.607743 -2.666647 53.855569 3.607491 -6.401060 -8.979783 29.204392 -0.469986 0.000000 0.000000 0.000000
0.002816 0.945512 0.068485 1.283777 -6.350491 -8.644544 0.468893 0.678934 6.873800 -0.456935 -0.087802 6.290919 6.545427 15.148381 19.845144 0.000000 0.000000 0.000000 -0.864420 -0.181198 2.402664 -0.661252 0.919146 14.438533 -3.987458 -11.005956 3.733527 0.000000 0.000000 0.000000 7.241871 -1.142691 13.134375 -11.159720 3.094793 -27.968721 -0.356531 5.486809 24.857776 9.166600 -4.167809 -23.227625 0.000000 0.000000 0.000000 -34.834850 -8.738398 3.139366 -47.217260 -2.615694 -6.649847 9.811231 -29.716708 -1.044036 0.000000 0.000000 0.000000 38.128229 0.184253 -1.988547 53.672420 4.988252 -5.752216 -9.562745 28.471304 -0.605174 0.000000 0.000000 0.000000
0.002574 0.936712 0.069755 1.411423 -7.775342 -9.310169 0.990796 0.528612 5.388225 -1.837488 0.183043 10.741302 7.815682 16.728235 17.937609 0.000000 0.000000 0.000000 -1.505891 -0.046602 1.103797 0.133704 1.020826 17.784050 -4.033068 -10.311827 1.364365 0.000000 0.000000 0.000000 7.694427 -1.234478 14.139957 -11.253963 3.116443 -27.668493 -0.297973 5.386960 24.413078 8.259798 -3.706706 -23.212722 0.000000 0.000000 0.000000 -35.353383 -8.451111 3.338114 -46.702017 -3.825755 -6.231809 9.350465 -29.591716 -0.889935 0.000000 0.000000 0.000000 37.977423 0.913641 -1.943231 53.435625 5.826925 -5.165904 -8.203533 29.019664 -0.404050 0.000000 0.000000 0.000000
0.002038 0.926424 0.071347 1.737804 -8.473517 -9.857837 1.605051 0.236691 2.223837 -3.665036 0.817561 17.341519 9.169078 18.581705 17.868576 0.000000 0.000000 0.000000 -1.856632 0.068144 -0.228701 0.422745 1.295642 21.739875 -4.627902 -10.366820 -2.174725 0.000000 0.000000 0.000000 7.620343 -1.324542 15.602992 -10.639989 2.928480 -28.171133 -0.468714 5.852988 24.330135 7.939945 -3.575442 -22.752473 0.000000 0.000000 0.000000 -35.167317 -9.779960 4.294123 -45.839624 -3.515599 -6.261006 8.131201 -30.872289 -0.642884 0.000000 0.000000 0.000000 38.360655 1.494921 -1.494533 53.256302 7.189697 -4.608194 -8.190847 28.677372 -0.399519 0.000000 0.000000 0.000000
0.002152 0.909196 0.074569 2.332747 -8.907914 -10.623927 2.856735 -0.035518 -1.764164 -6.784149 2.411766 25.713693 10.468618 20.335188 18.216916 0.000000 0.000000 0.000000 -2.889051 0.350020 -3.880328 1.771921 1.641056 30.116215 -5.650639 -11.726133 -5.571104 0.000000 0.000000 0.000000 8.168448 -1.408348 16.300368 -12.432677 3.360356 -28.417115 1.271081 3.862583 24.126925 7.042214 -3.842969 -19.945498 0.000000 0.000000 0.000000 -37.862264 -9.654298 5.253593 -43.214624 -4.384826 -5.958362 5.419037 -31.235232 0.107345 0.000000 0.000000 0.000000 39.379047 2.990962 -1.631142 49.463915 7.146910 -4.042791 -5.933534 30.406879 -0.104899 0.000000 0.000000 0.000000
0.003308 0.884595 0.081024 2.830525 -9.668858 -11.969208 3.739170 -0.257465 -6.798024 -8.571447 4.453911 36.218624 10.990934 21.140367 15.488055 0.000000 0.000000 0.000000 -4.495338 0.609746 -8.022863 4.096730 1.786403 40.502927 -6.194256 -12.326599 -8.331301 0.000000 0.000000 0.000000 9.414339 -1.571740 17.262556 -12.228085 3.293112 -28.597801 0.665692 4.686497 22.513109 6.988957 -4.947594 -11.840249 0.000000 0.000000 0.000000 -38.823287 -11.886301 6.607943 -40.938868 -3.543136 -5.778868 2.248724 -32.689798 0.866071 0.000000 0.000000 0.000000 41.037953 4.117672 -0.730558 44.739136 9.572932 -2.879013 -6.325803 30.268457 -0.297050 0.000000 0.000000 0.000000
0.005686 0.839844 0.092002 3.764605 -10.595672 -15.223664 5.721504 -0.140821 -11.958021 -11.500856 9.103585 52.129127 11.307933 22.047900 8.940407 0.000000 0.000000 0.000000 -5.998042 0.944218 -14.250211 6.361463 2.550878 57.218276 -7.009282 -15.270031 -7.989474 0.000000 0.000000 0.000000 10.896809 -1.729937 18.816717 -11.627734 3.433010 -25.302118 -0.186898 7.034985 18.374943 7.772627 -6.729295 -3.323514 0.000000 0.000000 0.000000 -39.363106 -12.554332 5.530096 -38.499353 -4.114066 -4.602582 -0.928436 -36.914384 1.746389 0.000000 0.000000 0.000000 43.429678 6.509751 1.904337 37.827953 14.907194 -0.987792 -8.273942 32.887344 -1.040470 0.000000 0.000000 0.000000
